PathFileType	4	(X/Y/Z)	C:/Users/opensim2020/Desktop/walking_exp_matlab/subject03_walking08_straight_02.trc																																																																																																																																																							
DataRate	CameraRate	NumFrames	NumMarkers	Units	OrigDataRate	OrigDataStartFrame	OrigNumFrames																																																																																																																																																			
100	100	4	51	mm	100	1631	314																																																																																																																																																			
Frame#	Time	LFHD			RFHD			LBHD			RBHD			C7			T10			CLAV			STRN			RBAK			LSHO			LUPA			LELB			LFRM			LWRA			LWRB			LFIN			RSHO			RUPA			RELB			RFRM			RWRA			RWRB			RFIN			LASI			RASI			LPSI			RPSI			LTHI			LKNE			LTIB			LANK			LHEE			LTOE			RTHI			RKNE			RTIB			RANK			RHEE			RTOE			*39			*40			*41			*42			*43			*44			*45			*46			*47			*48			*49			*50		
		X1	Y1	Z1	X2	Y2	Z2	X3	Y3	Z3	X4	Y4	Z4	X5	Y5	Z5	X6	Y6	Z6	X7	Y7	Z7	X8	Y8	Z8	X9	Y9	Z9	X10	Y10	Z10	X11	Y11	Z11	X12	Y12	Z12	X13	Y13	Z13	X14	Y14	Z14	X15	Y15	Z15	X16	Y16	Z16	X17	Y17	Z17	X18	Y18	Z18	X19	Y19	Z19	X20	Y20	Z20	X21	Y21	Z21	X22	Y22	Z22	X23	Y23	Z23	X24	Y24	Z24	X25	Y25	Z25	X26	Y26	Z26	X27	Y27	Z27	X28	Y28	Z28	X29	Y29	Z29	X30	Y30	Z30	X31	Y31	Z31	X32	Y32	Z32	X33	Y33	Z33	X34	Y34	Z34	X35	Y35	Z35	X36	Y36	Z36	X37	Y37	Z37	X38	Y38	Z38	X39	Y39	Z39	X40	Y40	Z40	X41	Y41	Z41	X42	Y42	Z42	X43	Y43	Z43	X44	Y44	Z44	X45	Y45	Z45	X46	Y46	Z46	X47	Y47	Z47	X48	Y48	Z48	X49	Y49	Z49	X50	Y50	Z50	X51	Y51	Z51
																																																																																																																																																										
79	0.78	-578.96027	1613.3457	-1524.82336	-581.29388	1618.90686	-1392.24841	-704.12042	1560.23328	-1521.74036	-701.23712	1565.84314	-1390.85229	-726.81744	1411.12341	-1458.59192	-773.31183	1099.87854	-1458.34729	-605.33417	1330.60217	-1463.90356	-572.12933	1163.69373	-1466.77698	-779.84155	1243.09497	-1353.74536	-657.72174	1366.45117	-1618.36621	-695.55786	1169.78259	-1684.41541	-703.60114	1046.47388	-1695.97961	-681.34503	918.40149	-1695.41504	-658.24463	802.22284	-1664.60242	-690.33563	805.01514	-1710.31067	-673.17035	722.69489	-1700.57678	-637.76691	1358.1554	-1303.52209	-592.72266	1145.15918	-1225.54443	-547.80182	1042.23608	-1214.44446	-485.41727	921.00439	-1221.16284	-429.85455	844.37445	-1266.38037	-450.18832	826.84467	-1219.46387	-402.15982	772.86328	-1235.94568	-601.56073	928.57922	-1569.57581	-613.68536	932.65234	-1331.026	-766.47345	950.4632	-1529.61145	-771.42712	966.68188	-1380.26257	-600.45844	627.96893	-1614.06165	-536.21716	465.55167	-1566.69641	-521.3006	276.9968	-1572.25098	-461.76831	74.54738	-1541.75562	-487.04453	29.47611	-1500.36743	-306.47949	74.25145	-1522.995	-711.40363	644.63477	-1298.82776	-733.95349	466.05893	-1335.09509	-829.37048	296.48135	-1339.65747	-912.69427	97.0516	-1395.97302	-960.89905	76.88062	-1448.68823	-779.94171	35.82372	-1409.91309	-666.6842	1669.17126	-1475.97461	NaN	NaN	NaN	NaN	NaN	NaN	NaN	NaN	NaN	NaN	NaN	NaN	NaN	NaN	NaN	NaN	NaN	NaN	NaN	NaN	NaN	NaN	NaN	NaN	NaN	NaN	NaN	NaN	NaN	NaN	NaN	NaN	NaN
80	0.79	-570.90125	1612.95618	-1525.61011	-573.43768	1618.55872	-1393.04785	-695.91467	1559.55054	-1522.55969	-693.22015	1565.20544	-1391.75671	-718.31787	1410.59937	-1459.90527	-764.46741	1099.19604	-1459.68396	-596.64197	1330.19116	-1464.70618	-563.27124	1163.26245	-1467.1886	-771.5105	1242.48462	-1355.2052	-648.49945	1365.77234	-1619.44849	-686.00305	1168.87134	-1684.95544	-694.1261	1045.54419	-1696.11414	-672.43549	917.32507	-1695.17297	-650.26788	801.17651	-1664.28491	-682.02423	803.95978	-1709.85815	-665.44232	721.51685	-1699.78674	-629.72723	1357.72754	-1304.44177	-585.33734	1144.3186	-1227.09155	-541.01483	1041.10852	-1216.31226	-479.26758	919.58374	-1222.99353	-423.62582	842.92389	-1268.00757	-444.46695	825.15198	-1221.42737	-396.42993	771.12177	-1237.79297	-592.20844	927.87115	-1569.94861	-605.25745	932.10925	-1331.44934	-757.06226	950.04846	-1530.89172	-762.69153	966.09314	-1381.57983	-591.51428	627.54248	-1614.03699	-528.01526	464.75504	-1566.74841	-515.00854	275.68134	-1572.31226	-456.55817	71.78551	-1540.50427	-484.12662	29.37119	-1500.67773	-302.51505	70.89555	-1521.92188	-704.51367	644.49268	-1299.19446	-727.77649	465.84744	-1335.03845	-825.38086	297.349	-1339.57874	-911.48706	98.98795	-1395.70337	-959.83698	79.50427	-1448.47302	-779.75684	35.76792	-1409.78857	-658.63708	1668.48096	-1476.65515	NaN	NaN	NaN	NaN	NaN	NaN	NaN	NaN	NaN	NaN	NaN	NaN	NaN	NaN	NaN	NaN	NaN	NaN	NaN	NaN	NaN	NaN	NaN	NaN	NaN	NaN	NaN	NaN	NaN	NaN	NaN	NaN	NaN
81	0.8	-562.29694	1612.68164	-1526.18567	-565.65375	1618.30896	-1393.80762	-687.29761	1558.84485	-1523.09399	-685.22601	1564.69666	-1392.71021	-709.98273	1410.11121	-1461.39868	-755.37708	1098.51465	-1461.0813	-587.9093	1329.85413	-1465.59741	-554.20782	1163.00378	-1467.78076	-763.13574	1241.92517	-1356.7467	-639.12976	1365.19946	-1620.5658	-676.26245	1168.07495	-1685.64771	-684.38904	1044.63879	-1696.33704	-663.36139	916.35382	-1694.99023	-641.9903	800.09686	-1663.70947	-673.52545	802.99463	-1709.51233	-657.51971	720.45465	-1699.07202	-621.67596	1357.4165	-1305.46094	-577.91345	1143.57227	-1228.80579	-534.27655	1040.03796	-1218.2373	-473.26379	918.03741	-1224.82043	-418.12073	841.1651	-1269.60278	-439.24084	823.27771	-1223.23792	-391.2709	769.26245	-1239.70703	-582.38342	927.40881	-1570.56726	-596.59265	931.52258	-1331.95105	-747.53064	949.76715	-1532.16309	-753.7616	965.61176	-1382.91772	-582.12482	627.32343	-1614.11475	-519.98621	463.89688	-1566.94775	-509.46356	274.24551	-1572.27832	-454.10056	70.1183	-1540.16187	-482.98007	28.86638	-1500.23523	-300.29581	64.84465	-1520.91174	-697.26691	644.16333	-1299.59985	-721.22052	465.63306	-1334.95325	-821.10638	298.17001	-1339.49243	-910.15857	101.15305	-1395.36365	-958.7818	82.36564	-1448.16882	-779.52313	35.70563	-1409.64343	NaN	NaN	NaN	NaN	NaN	NaN	NaN	NaN	NaN	NaN	NaN	NaN	NaN	NaN	NaN	NaN	NaN	NaN	NaN	NaN	NaN	NaN	NaN	NaN	NaN	NaN	NaN	NaN	NaN	NaN	NaN	NaN	NaN	NaN	NaN	NaN
82	0.81	-554.08142	1612.42725	-1526.87646	-557.7868	1618.13306	-1394.62317	-679.39758	1558.49487	-1524.45959	-677.19513	1564.21692	-1393.68799	-701.34357	1409.55884	-1462.74878	-746.15302	1097.91113	-1462.63855	-579.15808	1329.56042	-1466.48694	-545.08673	1162.80591	-1468.37805	-754.77679	1241.51904	-1358.46619	-629.61469	1364.6842	-1621.70483	-666.34155	1167.32336	-1686.41858	-674.09271	1043.67529	-1696.31592	-653.96661	915.36865	-1694.797	-633.32178	799.03546	-1662.88745	-664.66742	802.01691	-1709.11792	-649.34595	719.43744	-1698.4342	-613.66168	1357.17419	-1306.55933	-570.48608	1142.83667	-1230.63977	-527.56854	1038.94568	-1220.25183	-467.7373	916.33466	-1226.46045	-412.73871	839.25903	-1270.99451	-434.46396	821.245	-1224.91858	-386.36826	766.91711	-1241.10828	-572.58539	927.08545	-1571.05212	-587.72766	930.90045	-1332.43848	-737.83936	949.76794	-1533.54517	-744.70056	965.10175	-1384.18176	-572.32898	627.55688	-1614.31238	-512.51007	463.1362	-1567.15942	-504.47311	273.12711	-1571.45898	-451.85416	69.05468	-1539.36389	-482.31827	29.70674	-1499.35083	-298.12216	55.88468	-1519.92664	-689.73389	643.78522	-1300.07837	-714.18896	465.14136	-1334.97266	-816.54181	299.03375	-1339.4397	-908.72888	103.27112	-1394.90222	-957.75055	85.59359	-1447.77832	-779.2417	35.65943	-1409.52026	-642.87732	1667.65234	-1478.66809	NaN	NaN	NaN	NaN	NaN	NaN	NaN	NaN	NaN	NaN	NaN	NaN	NaN	NaN	NaN	NaN	NaN	NaN	NaN	NaN	NaN	NaN	NaN	NaN	NaN	NaN	NaN	NaN	NaN	NaN	NaN	NaN	NaN
